<svg version="1.1" xmlns="http://www.w3.org/2000/svg" xmlns:xlink="http://www.w3.org/1999/xlink" width="31.10282" height="24.82836" viewBox="0,0,31.10282,24.82836"><defs><radialGradient cx="240" cy="180" r="12.41418" gradientUnits="userSpaceOnUse" id="color-1"><stop offset="0" stop-color="#00ff38"/><stop offset="1" stop-color="#00ff38" stop-opacity="0"/></radialGradient></defs><g transform="translate(-224.44859,-167.58582)"><g data-paper-data="{&quot;isPaintingLayer&quot;:true}" fill-rule="nonzero" stroke="none" stroke-linecap="butt" stroke-linejoin="miter" stroke-miterlimit="10" stroke-dasharray="" stroke-dashoffset="0" style="mix-blend-mode: normal"><path d="M227.58582,180c0,-6.85616 5.55802,-12.41418 12.41418,-12.41418c6.85616,0 12.41418,5.55802 12.41418,12.41418c0,6.85616 -5.55802,12.41418 -12.41418,12.41418c-6.85616,0 -12.41418,-5.55802 -12.41418,-12.41418z" fill="url(#color-1)" stroke-width="0"/><path d="M224.44859,188.62274l4.70225,-12.64389l4.59536,1.66498l-4.26236,11.76411z" fill="#606060" stroke-width="0"/><path d="M225.30943,177.90346v-5.66972h29.42386v5.66972z" fill="#606060" stroke-width="0"/><path d="M236.43391,179.92088c-0.01152,0.01152 -0.02303,0.02218 -0.03454,0.03203c0.86142,-0.12277 1.4855,-0.5226 1.48305,-1.58945v-0.21995c0,0 0,-0.43989 0.43989,-0.43989c0.43989,0 0.43989,0.43989 0.43989,0.43989v0.21995c-0.00711,3.49648 -3.80866,2.07223 -6.16959,2.41499c0,0 -0.43547,0.06221 -0.49768,-0.37326c-0.06221,-0.43547 0.37326,-0.49768 0.37326,-0.49768c0.93052,-0.13102 2.31,0.1301 3.44361,0.08711c-0.06229,-0.03603 -0.10001,-0.07375 -0.10001,-0.07375l-0.32621,-0.39189c-0.2057,-0.63968 -0.16921,-1.23225 -0.16921,-1.89867c0,0 0,-0.43989 0.43989,-0.43989c0.43989,0 0.43989,0.43989 0.43989,0.43989c0,0.55898 -0.06101,1.09087 0.12405,1.62046l0.11368,0.048c0,0 0.31105,0.31105 0,0.6221z" fill="#606060" stroke-width="0.5"/><path d="M253.35196,173.01145v-2.4194h1.09973v2.4194z" fill="#606060" stroke-width="0"/><path d="M227.17841,173.08477v-1.90619h0.58652v1.90619z" fill="#606060" stroke-width="0"/><path d="M254.37837,175.6508v-2.63934h1.17304v2.63934z" fill="#606060" stroke-width="0"/></g></g></svg>