<svg version="1.1" xmlns="http://www.w3.org/2000/svg" xmlns:xlink="http://www.w3.org/1999/xlink" width="40.06738" height="30.4264" viewBox="0,0,40.06738,30.4264"><defs><radialGradient cx="240" cy="180" r="15.2132" gradientUnits="userSpaceOnUse" id="color-1"><stop offset="0" stop-color="#ff00ec"/><stop offset="1" stop-color="#ff00ec" stop-opacity="0"/></radialGradient></defs><g transform="translate(-219.96631,-164.7868)"><g data-paper-data="{&quot;isPaintingLayer&quot;:true}" fill-rule="nonzero" stroke="none" stroke-width="0" stroke-linecap="butt" stroke-linejoin="miter" stroke-miterlimit="10" stroke-dasharray="" stroke-dashoffset="0" style="mix-blend-mode: normal"><path d="M224.7868,180c0,-8.40202 6.81118,-15.2132 15.2132,-15.2132c8.40202,0 15.2132,6.81118 15.2132,15.2132c0,8.40202 -6.81118,15.2132 -15.2132,15.2132c-8.40202,0 -15.2132,-6.81118 -15.2132,-15.2132z" fill="url(#color-1)"/><g><path d="M219.96631,185.46694v-6.06654h1.34028v6.06654z" fill="#00061b"/><path d="M220.60118,184.62045v-4.86734h11.78037c0,0 0,1.95568 0,2.82067c0,0.73681 -1.39858,2.04667 -2.49357,2.04667c-2.11315,0 -9.2868,0 -9.2868,0z" fill="#050057"/><path d="M228.8545,181.58717v-2.89218h17.98799v2.89218z" fill="#050057"/><path d="M233.51021,178.76553v-1.05812h26.52348v1.05812z" fill="#050057"/><path d="M240.28216,179.47094v-2.96273h1.62244v2.96273z" fill="#050057"/><path d="M234.35671,176.86092v-2.32786h10.93388v2.32786z" fill="#00061b"/></g></g></g></svg>