<svg version="1.1" xmlns="http://www.w3.org/2000/svg" xmlns:xlink="http://www.w3.org/1999/xlink" width="44.825" height="30.4264" viewBox="0,0,44.825,30.4264"><defs><radialGradient cx="240" cy="180" r="15.2132" gradientUnits="userSpaceOnUse" id="color-1"><stop offset="0" stop-color="#ff00ec"/><stop offset="1" stop-color="#ff00ec" stop-opacity="0"/></radialGradient></defs><g transform="translate(-217.5875,-164.7868)"><g data-paper-data="{&quot;isPaintingLayer&quot;:true}" fill-rule="nonzero" stroke-linejoin="miter" stroke-miterlimit="10" stroke-dasharray="" stroke-dashoffset="0" style="mix-blend-mode: normal"><path d="M224.7868,180c0,-8.40202 6.81118,-15.2132 15.2132,-15.2132c8.40202,0 15.2132,6.81118 15.2132,15.2132c0,8.40202 -6.81118,15.2132 -15.2132,15.2132c-8.40202,0 -15.2132,-6.81118 -15.2132,-15.2132z" fill="url(#color-1)" stroke="none" stroke-width="0" stroke-linecap="butt"/><g><path d="M234.11456,179.7088c-0.10435,-0.38707 -0.15968,-0.79087 -0.16161,-1.19174c0,0 0,-0.38894 0.38894,-0.38894c0.38894,0 0.38894,0.38894 0.38894,0.38894c-0.00154,0.27024 0.00471,0.54409 0.06064,0.80849l0.26995,0.24998c0,0 0.00159,0.00159 0.00441,0.00467c0.11873,-0.26282 0.21287,-0.63556 0.34336,-1.15748l-0.01162,-0.0168c0,0 0.00001,-0.38894 0.38894,-0.38894c0.38894,0 0.38894,0.38894 0.38894,0.38894l-0.01162,0.20547c-0.50701,2.02807 -0.92348,2.42816 -3.06859,2.29409c0,0 -0.38818,-0.02427 -0.36391,-0.41244c0.02427,-0.38817 0.41244,-0.36392 0.41244,-0.36392c0.63933,0.03996 1.05626,0.05244 1.3473,-0.02485z" fill="#444444" stroke="none" stroke-width="0.5" stroke-linecap="butt"/><path d="M239.89858,187.81708c0,0 -1.63527,-2.93734 -2.20029,-4.52478c-0.57744,-1.62233 -1.2279,-5.10679 -1.2279,-5.10679l2.61728,-0.93158c0,0 0.57171,3.2632 1.11611,4.79273c0.594,1.66884 2.31208,4.83885 2.31208,4.83885z" fill="#3c5d66" stroke="none" stroke-width="0" stroke-linecap="butt"/><path d="M229.88695,183.5918l1.98039,-5.48535l2.15112,0.55873c0,0 -0.80641,2.45943 -1.16508,3.81769c-0.21221,0.80362 0.02121,0.57175 -0.11311,0.98149c-0.20438,0.62344 -0.7022,1.24179 -0.7022,1.24179z" fill="#745108" stroke="none" stroke-width="0" stroke-linecap="butt"/><g fill="#292929" stroke="none" stroke-width="0" stroke-linecap="butt"><path d="M249.77205,178.24617v-0.97234h12.64045v0.97234z"/><path d="M260.85676,177.66277v-2.33363h1.06957v2.33363z"/><path d="M250.64716,176.69042v-0.77787h4.57001v0.77787z"/><path d="M254.34206,177.76v-1.36127h0.68064v1.36127z"/></g><path d="M243.35459,178.73234v-3.30596l7.84356,0.19447v2.72256z" fill="#745108" stroke="none" stroke-width="0" stroke-linecap="butt"/><path d="M218.26814,181.55214c0,0 -0.68064,-2.1488 -0.68064,-3.11149c0,-0.83372 0.68064,-2.33363 0.68064,-2.33363c0,0 3.66861,-0.77787 5.44512,-0.77787c2.36405,0 7.48703,0.77787 7.48703,0.77787l-0.19447,1.75021c0,0 -4.27104,1.46161 -6.41778,2.08433c-2.09803,0.60859 -6.31991,1.61058 -6.31991,1.61058z" fill="#745108" stroke="none" stroke-width="0" stroke-linecap="butt"/><path d="M229.64455,179.12128v-3.9866h15.81029v3.9866z" fill="#292929" stroke="none" stroke-width="0" stroke-linecap="butt"/><path d="M234.00852,175.40556v-1.00013h8.33437v1.00013z" fill="#444444" stroke="none" stroke-width="0" stroke-linecap="butt"/><path d="M240.56488,174.7388v-2.55587h1.77801v2.55587z" fill="#444444" stroke="none" stroke-width="0" stroke-linecap="butt"/><path d="M245.9313,177.03075h1.68539" fill="none" stroke="#292929" stroke-width="1" stroke-linecap="round"/><path d="M250.46888,177.03075h-1.55575" fill="none" stroke="#292929" stroke-width="1" stroke-linecap="round"/></g><path d="M232.02584,177.34195v-0.98144h0.65429v0.98144z" fill="#444444" stroke="none" stroke-width="NaN" stroke-linecap="butt"/><path d="M233.28476,177.46171v-1.28521h6.55458v1.28521z" fill="#1a1a1a" stroke="none" stroke-width="0" stroke-linecap="butt"/><path d="M232.51364,177.04402v-0.44983h3.14877v0.44983z" fill="#444444" stroke="none" stroke-width="0" stroke-linecap="butt"/></g></g></svg>