<svg version="1.1" xmlns="http://www.w3.org/2000/svg" xmlns:xlink="http://www.w3.org/1999/xlink" width="48.175" height="30.42641" viewBox="0,0,48.175,30.42641"><defs><radialGradient cx="240" cy="180" r="15.2132" gradientUnits="userSpaceOnUse" id="color-1"><stop offset="0" stop-color="#00b5ff"/><stop offset="1" stop-color="#00b5ff" stop-opacity="0"/></radialGradient></defs><g transform="translate(-215.9125,-164.7868)"><g data-paper-data="{&quot;isPaintingLayer&quot;:true}" fill-rule="nonzero" stroke="none" stroke-linecap="butt" stroke-linejoin="miter" stroke-miterlimit="10" stroke-dasharray="" stroke-dashoffset="0" style="mix-blend-mode: normal"><path d="M224.7868,180c0,-8.40202 6.81118,-15.2132 15.2132,-15.2132c8.40202,0 15.2132,6.81118 15.2132,15.2132c0,8.40202 -6.81118,15.2132 -15.2132,15.2132c-8.40202,0 -15.2132,-6.81118 -15.2132,-15.2132z" fill="url(#color-1)" stroke-width="0"/><path d="M235.39883,178.54991c0,0 -0.12667,-0.50277 0.24479,-0.67422c0.37146,-0.17145 0.49813,0.33132 0.49813,0.33132c0.20761,0.85346 -0.20088,2.04405 0.19086,2.65377l0.25898,0.29241c0.23659,-0.20849 0.44964,-0.54722 0.63543,-1.06598l0.08655,-0.23837c0,0 0.17309,-0.47674 0.52532,-0.24246c0.35223,0.23428 0.17914,0.71102 0.17914,0.71102l-0.08655,0.23837c-0.97563,2.65731 -2.47778,1.94928 -4.22124,1.32392c0,0 -0.37934,-0.13623 -0.27868,-0.64966c0.10065,-0.51343 0.47999,-0.37719 0.47999,-0.37719c0.64183,0.23078 1.24092,0.53077 1.77326,0.57849c-0.46333,-1.03416 0.00412,-1.7818 -0.28599,-2.88142z" fill="#898989" stroke-width="0.5"/><path d="M235.92818,179.73129v-2.65287h27.37439v2.65287z" fill="#898989" stroke-width="0"/><path d="M215.9125,185.71036v-9.56153h20.80061l-0.29435,4.51517z" fill="#8e5219" stroke-width="0"/><path d="M230.62991,177.74242v-3.45277h33.45759v3.45277z" fill="#5a5a5a" stroke-width="0"/><path d="M243.09066,181.19519v-3.64957h17.0722v3.64957z" fill="#8e5219" stroke-width="0"/></g></g></svg>