<svg version="1.1" xmlns="http://www.w3.org/2000/svg" xmlns:xlink="http://www.w3.org/1999/xlink" width="33.71694" height="29.57265" viewBox="0,0,33.71694,29.57265"><g transform="translate(-222.40976,-165.35528)"><g data-paper-data="{&quot;isPaintingLayer&quot;:true}" fill="#ffde00" fill-rule="nonzero" stroke="none" stroke-width="0" stroke-linecap="butt" stroke-linejoin="miter" stroke-miterlimit="10" stroke-dasharray="" stroke-dashoffset="0" style="mix-blend-mode: normal"><path d="M232.95145,188.44439c-1.36938,-0.76106 -1.86253,-2.48813 -1.10147,-3.85751c0.76106,-1.36938 2.48813,-1.86253 3.85751,-1.10147c1.36938,0.76106 1.86253,2.48813 1.10147,3.85751c-0.76106,1.36938 -2.48813,1.86253 -3.85751,1.10147z"/><path d="M232.51795,182.61008l-3.11738,-6.95711c0,0 0.55191,-1.07726 1.69005,-1.68875c0.97591,-0.52434 2.5107,-0.59566 3.05117,-0.60302c0.55179,-0.00752 2.0986,0.0925 3.08707,0.65951c1.12471,0.64515 1.66543,1.76799 1.66543,1.76799l-2.92949,6.82742c0,0 -1.17938,-0.32588 -1.80768,-0.32698c-0.48061,-0.00084 -1.63917,0.32093 -1.63917,0.32093z"/><path d="M237.91875,185.99839l7.5858,0.75827c0,0 0.65973,1.01482 0.62373,2.30632c-0.03087,1.10742 -0.7328,2.47415 -0.99538,2.94661c-0.26807,0.48234 -1.12461,1.77425 -2.10833,2.34945c-1.1193,0.65448 -2.36232,0.56472 -2.36232,0.56472l-4.46408,-5.93865c0,0 0.86958,-0.8608 1.18321,-1.40523c0.23991,-0.41646 0.53737,-1.5815 0.53737,-1.5815z"/><path d="M231.10609,187.42417c0.33269,0.53298 1.23217,1.36249 1.23217,1.36249l-4.25118,6.09286c0,0 -1.23907,0.13369 -2.38083,-0.48079c-1.00346,-0.54004 -1.90516,-1.80083 -2.19012,-2.2734c-0.27912,-0.46287 -1.02897,-1.8039 -1.09899,-2.90954c-0.08167,-1.28942 0.54174,-2.32694 0.54174,-2.32694l7.55423,-1.02617c0,0 0.33849,1.15379 0.59298,1.56149z" data-paper-data="{&quot;index&quot;:null}"/><path d="M245.06484,173.10262c-0.09814,-1.20126 0.7961,-2.25463 1.99736,-2.35276c1.20126,-0.09814 2.25462,0.79611 2.35276,1.99736c0.09814,1.20126 -0.79611,2.25462 -1.99736,2.35276c-1.20126,0.09814 -2.25463,-0.7961 -2.35276,-1.99736z"/><path d="M248.6123,170.33264l3.11913,-4.96676c0,0 0.925,-0.10713 1.80247,0.35976c0.7524,0.40034 1.45375,1.3518 1.68937,1.69443c0.24056,0.34981 0.83741,1.38215 0.89697,2.2568c0.06776,0.99519 -0.41959,1.82086 -0.41959,1.82086l-5.61961,1.0427c0,0 -0.29539,-0.89378 -0.56312,-1.29621c-0.20479,-0.30784 -0.90564,-0.91159 -0.90564,-0.91159z"/><path d="M248.75194,175.23556l2.7558,5.17718c0,0 -0.3674,0.85564 -1.20905,1.38439c-0.72169,0.45338 -1.89598,0.58822 -2.31044,0.62208c-0.42313,0.03457 -1.61559,0.03852 -2.40387,-0.34509c-0.89693,-0.43648 -1.37056,-1.2701 -1.37056,-1.2701l1.8922,-5.39321c0,0 0.92223,0.18857 1.40454,0.15663c0.36893,-0.02444 1.24139,-0.33188 1.24139,-0.33188z"/><path d="M244.92916,171.48613c-0.19885,0.44056 -0.34525,1.37042 -0.34525,1.37042l-5.71433,-0.11672c0,0 -0.6149,-0.73562 -0.70958,-1.72861c-0.08321,-0.87271 0.33818,-1.98826 0.51876,-2.37247c0.17688,-0.37633 0.71448,-1.42901 1.39193,-1.94617c0.79005,-0.60314 1.72018,-0.64756 1.72018,-0.64756l3.88396,4.39461c0,0 -0.59355,0.7095 -0.74566,1.04649z" data-paper-data="{&quot;index&quot;:null}"/></g></g></svg>