<svg version="1.1" xmlns="http://www.w3.org/2000/svg" xmlns:xlink="http://www.w3.org/1999/xlink" width="32.91506" height="32.16347" viewBox="0,0,32.91506,32.16347"><g transform="translate(-223.54247,-163.91827)"><g data-paper-data="{&quot;isPaintingLayer&quot;:true}" fill-rule="nonzero" stroke="none" stroke-width="0" stroke-linecap="butt" stroke-linejoin="miter" stroke-miterlimit="10" stroke-dasharray="" stroke-dashoffset="0" style="mix-blend-mode: normal"><path d="M238.02704,185.3698c-2.12919,-0.60732 -3.36291,-2.8257 -2.75559,-4.95489c0.60732,-2.12919 2.8257,-3.36291 4.95489,-2.75559c2.12919,0.60732 3.36291,2.8257 2.75559,4.95489c-0.60732,2.12919 -2.8257,3.36291 -4.95489,2.75559z" fill="#ffde00"/><path d="M235.55545,177.47969l-6.5261,-8.57282c0,0 0.41337,-1.65994 1.7832,-2.86727c1.17458,-1.03525 3.2639,-1.62664 4.00535,-1.81047c0.75697,-0.18768 2.91791,-0.54713 4.46051,-0.08446c1.7552,0.52643 2.86023,1.89796 2.86023,1.89796l-1.83754,10.33764c0,0 -1.72785,-0.06946 -2.59289,0.13094c-0.66171,0.1533 -2.15276,0.96847 -2.15276,0.96847z" fill="#ffde00"/><path d="M244.07717,180.40716l10.68359,-1.3943c0,0 1.23408,1.18462 1.59959,2.97361c0.31341,1.534 -0.21339,3.64053 -0.42292,4.37513c-0.21392,0.74997 -0.97754,2.80321 -2.14652,3.91097c-1.3301,1.26044 -3.06965,1.53637 -3.06965,1.53637l-8.05217,-6.73839c0,0 0.92012,-1.46413 1.17678,-2.31418c0.19633,-0.65024 0.2313,-2.34921 0.2313,-2.34921z" fill="#ffde00"/><path d="M235.15951,184.55878c0.62915,0.6266 2.13364,1.47912 2.13364,1.47912l-3.89258,9.75147c0,0 -1.6623,0.58219 -3.43111,0.10345c-1.55456,-0.42075 -3.2007,-1.86612 -3.74475,-2.42489c-0.53289,-0.54731 -1.99584,-2.15193 -2.44753,-3.65105c-0.52678,-1.74831 -0.00225,-3.37654 -0.00225,-3.37654l10.06667,-3.83998c0,0 0.83664,1.47911 1.3179,1.95842z" data-paper-data="{&quot;index&quot;:null}" fill="#ffde00"/></g></g></svg>