<svg version="1.1" xmlns="http://www.w3.org/2000/svg" xmlns:xlink="http://www.w3.org/1999/xlink" width="47.52031" height="62.72601" viewBox="0,0,47.52031,62.72601"><g transform="translate(-217.61111,-139.22615)"><g data-paper-data="{&quot;isPaintingLayer&quot;:true}" fill-rule="nonzero" stroke-linejoin="miter" stroke-miterlimit="10" stroke-dasharray="" stroke-dashoffset="0" style="mix-blend-mode: normal"><path d="M219.61111,199.95216v-41.17077h41.55556v41.17077z" fill-opacity="0.4791" fill="#888888" stroke="#b0b0b0" stroke-width="4" stroke-linecap="butt"/><text transform="translate(218.5026,150.77594) scale(0.28518,0.28518)" font-size="40" xml:space="preserve" fill="#ffffff" fill-rule="nonzero" stroke="none" stroke-width="1" stroke-linecap="butt" stroke-linejoin="miter" stroke-miterlimit="10" stroke-dasharray="" stroke-dashoffset="0" font-family="Marker" font-weight="normal" text-anchor="start" style="mix-blend-mode: normal"><tspan x="0" dy="0">WEAPON</tspan></text><g><path d="M237.38827,185.12711c-0.34748,-0.19991 -0.67214,-0.44632 -0.95697,-0.72842c0,0 -0.27502,-0.27502 0,-0.55004c0.27502,-0.27502 0.55004,0 0.55004,0c0.19,0.19219 0.38806,0.3814 0.61458,0.52881l0.36765,-0.01412c0,0 0.00225,0 0.00643,0.00018c-0.10189,-0.2698 -0.29889,-0.59993 -0.57567,-1.06125l-0.02009,-0.00367c0,0 -0.27502,-0.27502 0,-0.55004c0.27502,-0.27502 0.55004,0 0.55004,0l0.13707,0.15349c1.07554,1.79258 1.06397,2.36997 -0.54765,3.79199c0,0 -0.29164,0.25733 -0.54896,-0.0343c-0.25732,-0.29163 0.03431,-0.54897 0.03431,-0.54897c0.48034,-0.42383 0.78396,-0.70982 0.93511,-0.97026z" fill="#444444" stroke="none" stroke-width="0.5" stroke-linecap="butt"/><path d="M247.2116,186.77062c0,0 -3.23332,-0.92071 -4.75534,-1.64366c-1.55547,-0.73885 -4.4793,-2.74279 -4.4793,-2.74279l1.19197,-2.50942c0,0 2.71169,1.90317 4.17818,2.59976c1.60006,0.76003 5.05647,1.7867 5.05647,1.7867z" fill="#3c5d66" stroke="none" stroke-width="0" stroke-linecap="butt"/><path d="M237.14458,190.86217l-2.47837,-5.27908l1.91615,-1.12598c0,0 1.16885,2.30929 1.87568,3.52335c0.41819,0.7183 0.41929,0.38929 0.61404,0.77401c0.29632,0.58536 0.38155,1.37461 0.38155,1.37461z" fill="#745108" stroke="none" stroke-width="0" stroke-linecap="butt"/><g fill="#292929" stroke="none" stroke-width="0" stroke-linecap="butt"><path d="M247.42555,173.02136l-0.68755,-0.68755l8.93815,-8.93815l0.68755,0.68755z"/><path d="M254.8511,164.77076l-1.65013,-1.65013l0.7563,-0.7563l1.65013,1.65013z"/><path d="M246.94426,171.30249l-0.55004,-0.55004l3.23149,-3.23149l0.55004,0.55004z"/><path d="M250.31326,169.4461l-0.96257,-0.96257l0.48129,-0.48129l0.96257,0.96257z"/></g><path d="M243.23149,177.90297l-2.33767,-2.33767l5.68375,-5.40872l1.92514,1.92514z" fill="#745108" stroke="none" stroke-width="0" stroke-linecap="butt"/><path d="M227.48659,197.63566c0,0 -2.00072,-1.03815 -2.68145,-1.71888c-0.58953,-0.58953 -1.16884,-2.13141 -1.16884,-2.13141c0,0 2.04406,-3.14414 3.30024,-4.40032c1.67163,-1.67163 5.84417,-4.7441 5.84417,-4.7441l1.10007,1.3751c0,0 -1.98657,4.0536 -3.06422,6.01189c-1.05319,1.91387 -3.33,5.6077 -3.33,5.6077z" fill="#745108" stroke="none" stroke-width="0" stroke-linecap="butt"/><path d="M233.81205,187.87245l-2.81895,-2.81895l11.17956,-11.17956l2.81895,2.81895z" fill="#292929" stroke="none" stroke-width="0" stroke-linecap="butt"/><path d="M234.27043,182.15925l-0.7072,-0.7072l5.89329,-5.89329l0.7072,0.7072z" fill="#444444" stroke="none" stroke-width="0" stroke-linecap="butt"/><path d="M238.43501,177.05173l-1.80728,-1.80728l1.25724,-1.25724l1.80728,1.80728z" fill="#444444" stroke="none" stroke-width="0" stroke-linecap="butt"/><path d="M243.85029,174.87776l1.19175,-1.19175" fill="none" stroke="#292929" stroke-width="1" stroke-linecap="round"/><path d="M247.05885,171.6692l-1.10007,1.10007" fill="none" stroke="#292929" stroke-width="1" stroke-linecap="round"/></g><path d="M234.23769,184.93044l-0.69398,-0.69398l0.46265,-0.46265l0.69398,0.69398z" fill="#444444" stroke="none" stroke-width="NaN" stroke-linecap="butt"/><path d="M235.21257,184.12493l-0.90878,-0.90878l4.63479,-4.63479l0.90878,0.90878z" fill="#1a1a1a" stroke="none" stroke-width="0" stroke-linecap="butt"/><path d="M234.37196,184.37485l-0.31807,-0.31807l2.22652,-2.22652l0.31807,0.31807z" fill="#444444" stroke="none" stroke-width="0" stroke-linecap="butt"/></g></g></svg>