<svg version="1.1" xmlns="http://www.w3.org/2000/svg" xmlns:xlink="http://www.w3.org/1999/xlink" width="47.75797" height="62.72601" viewBox="0,0,47.75797,62.72601"><g transform="translate(-217.61111,-139.22615)"><g data-paper-data="{&quot;isPaintingLayer&quot;:true}" fill-rule="nonzero" stroke-linecap="butt" stroke-linejoin="miter" stroke-miterlimit="10" stroke-dasharray="" stroke-dashoffset="0" style="mix-blend-mode: normal"><path d="M219.61111,199.95216v-41.17077h41.55556v41.17077z" fill-opacity="0.4791" fill="#888888" stroke="#b0b0b0" stroke-width="4"/><text transform="translate(218.5026,150.77594) scale(0.28518,0.28518)" font-size="40" xml:space="preserve" fill="#ffffff" fill-rule="nonzero" stroke="none" stroke-width="1" stroke-linecap="butt" stroke-linejoin="miter" stroke-miterlimit="10" stroke-dasharray="" stroke-dashoffset="0" font-family="Marker" font-weight="normal" text-anchor="start" style="mix-blend-mode: normal"><tspan x="0" dy="0">WEAPON</tspan></text><path d="M235.85998,184.03577c-0.26041,-0.25959 -0.52082,-0.51917 -0.78122,-0.77876c0,0 -0.49193,-0.49192 -0.12883,-0.85502c0.3631,-0.3631 0.85502,0.12882 0.85502,0.12882c0.23253,0.23336 0.46508,0.46673 0.69762,0.70008l0.50959,0.3957c0,0 0.1399,0.10927 0.24186,0.27417c0.25699,-0.21955 0.10871,-0.59328 -0.62756,-1.53161l-0.2527,-0.24282c0,0 -0.49193,-0.49192 -0.12883,-0.85502c0.3631,-0.3631 0.85502,0.12882 0.85502,0.12882l0.40457,0.41445c2.27153,2.92524 0.53491,3.01937 -1.75413,4.01605c0,0 -0.48585,0.21153 -0.85704,-0.36211c-0.37117,-0.57365 0.11468,-0.7852 0.11468,-0.7852c0.43311,-0.18858 0.8262,-0.31044 1.16199,-0.40427z" fill="#595959" stroke="none" stroke-width="0.5"/><path d="M235.67985,182.46887l-1.72531,-1.72531l1.33414,-1.33414l1.72531,1.72531z" fill="#595959" stroke="none" stroke-width="0"/><path d="M229.89542,185.29565l-1.23236,-1.23237l11.58269,-11.58269l1.23237,1.23236z" fill="#303030" stroke="none" stroke-width="0"/><path d="M227.83827,199.02052c0,0 -2.74331,-0.92405 -3.62082,-1.80156c-0.78198,-0.78198 -1.39077,-3.21004 -1.39077,-3.21004c0,0 7.19701,-7.19702 9.07552,-9.07552c0.84586,-0.84586 2.41418,-1.26603 2.68404,-0.99617c0.24875,0.24875 0.71705,0.71706 0.71705,0.71706z" data-paper-data="{&quot;index&quot;:null}" fill="#583100" stroke="none" stroke-width="0"/><path d="M231.78503,187.18527c0,0 -0.37137,-0.37138 -0.5751,-0.57511c-0.23101,-0.23101 -0.17468,-1.30417 0.47672,-1.95556c2.66243,-2.66243 20.3167,-20.3167 20.3167,-20.3167l1.31452,1.31452c0,0 -14.05236,15.233 -17.68824,18.86888c-1.55558,1.55558 -3.84459,2.66398 -3.84459,2.66398z" fill="#583100" stroke="none" stroke-width="0"/><path d="M252.54927,167.04654l-2.03714,-2.03714l2.33229,-4.02991l4.32892,4.32892z" fill="#593912" stroke="none" stroke-width="0"/></g></g></svg>