<svg version="1.1" xmlns="http://www.w3.org/2000/svg" xmlns:xlink="http://www.w3.org/1999/xlink" width="47.52031" height="62.72601" viewBox="0,0,47.52031,62.72601"><g transform="translate(-217.61111,-139.22615)"><g data-paper-data="{&quot;isPaintingLayer&quot;:true}" fill-rule="nonzero" stroke-linecap="butt" stroke-linejoin="miter" stroke-miterlimit="10" stroke-dasharray="" stroke-dashoffset="0" style="mix-blend-mode: normal"><path d="M219.61111,199.95216v-41.17077h41.55556v41.17077z" fill-opacity="0.49523" fill="#888888" stroke="#b0b0b0" stroke-width="4"/><text transform="translate(218.5026,150.77594) scale(0.28518,0.28518)" font-size="40" xml:space="preserve" fill="#ffffff" fill-rule="nonzero" stroke="none" stroke-width="1" stroke-linecap="butt" stroke-linejoin="miter" stroke-miterlimit="10" stroke-dasharray="" stroke-dashoffset="0" font-family="Marker" font-weight="normal" text-anchor="start" style="mix-blend-mode: normal"><tspan x="0" dy="0">WEAPON</tspan></text><g stroke="none"><path d="M236.95537,181.77245c0,0 -0.28685,-0.15423 -0.16761,-0.42388c0.11924,-0.26965 0.40608,-0.11542 0.40608,-0.11542c0.48304,0.2657 0.79148,1.00178 1.26399,1.06418l0.26383,-0.0073c0.03239,-0.2153 -0.00468,-0.47541 -0.13498,-0.80022l-0.05925,-0.14986c0,0 -0.11852,-0.29973 0.16864,-0.38134c0.28715,-0.08162 0.40566,0.21812 0.40566,0.21812l0.05925,0.14986c0.65493,1.67634 -0.44197,2.15208 -1.62892,2.7904c0,0 -0.25834,0.13881 -0.43085,-0.13909c-0.17253,-0.27791 0.0858,-0.41672 0.0858,-0.41672c0.4372,-0.23475 0.8824,-0.41675 1.182,-0.67448c-0.69617,-0.21111 -0.77943,-0.78375 -1.41365,-1.11423z" fill="#898989" stroke-width="0.5"/><path d="M237.75069,182.01357l-1.16368,-1.16368l14.32947,-14.32947l1.16368,1.16368z" fill="#898989" stroke-width="0"/><path d="M229.89595,195.11377l-4.19419,-4.19419l10.88834,-10.88834l1.82651,2.13467z" fill="#8e5219" stroke-width="0"/><path d="M234.10481,183.9146l-1.51457,-1.51457l17.5138,-17.5138l1.51457,1.51457z" fill="#5a5a5a" stroke-width="0"/><path d="M242.14211,178.90643l-1.86408,-1.86408l8.93666,-8.93666l1.86408,1.86408z" fill="#8e5219" stroke-width="0"/></g></g></g></svg>