<svg version="1.1" xmlns="http://www.w3.org/2000/svg" xmlns:xlink="http://www.w3.org/1999/xlink" width="47.52031" height="62.72601" viewBox="0,0,47.52031,62.72601"><g transform="translate(-217.61111,-139.22615)"><g data-paper-data="{&quot;isPaintingLayer&quot;:true}" fill-rule="nonzero" stroke-linecap="butt" stroke-linejoin="miter" stroke-miterlimit="10" stroke-dasharray="" stroke-dashoffset="0" style="mix-blend-mode: normal"><path d="M219.61111,199.95216v-41.17077h41.55556v41.17077z" fill-opacity="0.4791" fill="#888888" stroke="#b0b0b0" stroke-width="4"/><text transform="translate(218.5026,150.77594) scale(0.28518,0.28518)" font-size="40" xml:space="preserve" fill="#ffffff" fill-rule="nonzero" stroke="none" stroke-width="1" stroke-linecap="butt" stroke-linejoin="miter" stroke-miterlimit="10" stroke-dasharray="" stroke-dashoffset="0" font-family="Marker" font-weight="normal" text-anchor="start" style="mix-blend-mode: normal"><tspan x="0" dy="0">WEAPON</tspan></text><g stroke="none" stroke-width="0"><path d="M230.84159,196.04497l-4.0704,-4.0704l0.89927,-0.89927l4.0704,4.0704z" fill="#00061b"/><path d="M230.6996,195.05104l-3.26579,-3.26579l7.90416,-7.90416c0,0 1.31218,1.31218 1.89256,1.89256c0.49437,0.49437 0.43484,2.31162 -0.29986,3.04632c-1.41784,1.41784 -6.23107,6.23107 -6.23107,6.23107z" fill="#050057"/><path d="M234.20204,187.47818l-1.94054,-1.94054l12.06922,-12.06922l1.94054,1.94054z" fill="#050057"/><path d="M235.43262,182.46118l-0.70996,-0.70996l17.79619,-17.79619l0.70996,0.70996z" fill="#050057"/><path d="M240.44963,178.39077l-1.98787,-1.98787l1.08859,-1.08859l1.98787,1.98787z" fill="#050057"/><path d="M234.72268,180.61529l-1.5619,-1.5619l7.3362,-7.3362l1.5619,1.5619z" fill="#00061b"/></g></g></g></svg>