<svg version="1.1" xmlns="http://www.w3.org/2000/svg" xmlns:xlink="http://www.w3.org/1999/xlink" width="47.52031" height="62.72601" viewBox="0,0,47.52031,62.72601"><g transform="translate(-217.61111,-139.22615)"><g data-paper-data="{&quot;isPaintingLayer&quot;:true}" fill-rule="nonzero" stroke-linecap="butt" stroke-linejoin="miter" stroke-miterlimit="10" stroke-dasharray="" stroke-dashoffset="0" style="mix-blend-mode: normal"><path d="M219.61111,199.95216v-41.17077h41.55556v41.17077z" fill-opacity="0.50641" fill="#888888" stroke="#b0b0b0" stroke-width="4"/><text transform="translate(218.5026,150.77594) scale(0.28518,0.28518)" font-size="40" xml:space="preserve" fill="#ffffff" fill-rule="nonzero" stroke="none" stroke-width="1" stroke-linecap="butt" stroke-linejoin="miter" stroke-miterlimit="10" stroke-dasharray="" stroke-dashoffset="0" font-family="Marker" font-weight="normal" text-anchor="start" style="mix-blend-mode: normal"><tspan x="0" dy="0">WEAPON</tspan></text><g fill="#606060" stroke="none"><path d="M237.20113,197.97454l-5.61559,-12.26557l4.42673,-2.07209l5.30454,11.33243z" stroke-width="0"/><path d="M230.84888,189.52099l-4.0091,-4.0091l9.07965,-11.3424l11.72616,-9.46342l4.0091,4.0091l-9.3927,11.79687z" stroke-width="0"/><path d="M240.08858,184.19502c0,0.01629 -0.0006,0.03197 -0.00177,0.04707c0.5223,-0.69593 0.68087,-1.41994 -0.07524,-2.17259l-0.15553,-0.15553c0,0 -0.31105,-0.31105 0,-0.6221c0.31105,-0.31105 0.6221,0 0.6221,0l0.15553,0.15553c2.46736,2.47741 -1.22784,4.15842 -2.6549,6.07021c0,0 -0.26393,0.35191 -0.61585,0.08798c-0.35191,-0.26393 -0.08798,-0.61585 -0.08798,-0.61585c0.56533,-0.75062 1.72541,-1.54142 2.4966,-2.3734c-0.06952,0.01857 -0.12287,0.01857 -0.12287,0.01857l-0.50777,-0.04644c-0.59777,-0.30687 -0.99098,-0.75168 -1.46221,-1.22291c0,0 -0.31105,-0.31105 0,-0.6221c0.31105,-0.31105 0.6221,0 0.6221,0c0.39526,0.39526 0.72822,0.8145 1.23355,1.05812l0.11433,-0.04644c0,0 0.43989,0 0.43989,0.43989z" stroke-width="0.5"/><path d="M247.21877,166.23275l-1.71077,-1.71077l0.77763,-0.77763l1.71077,1.71077z" stroke-width="0"/><path d="M228.76312,184.79209l-1.34788,-1.34788l0.41473,-0.41473l1.34788,1.34788z" stroke-width="0"/><path d="M249.11049,168.07364l-1.55525,-1.55525l4.49294,-4.49294l1.55525,1.55525z" stroke-width="0"/><path d="M253.60777,188.454l-16.10632,-7.75256l1.78905,-3.71684l16.10632,7.75256z" stroke-width="0"/><path d="M228.79017,194.42126l-4.18699,-6.69919l1.78079,-1.113l4.18699,6.69919z" stroke-width="0"/><path d="M227.02139,188.88882l-0.91924,-0.91924l3.74767,-3.74767l0.91924,0.91924z" stroke-width="0"/></g></g></g></svg>