<svg version="1.1" xmlns="http://www.w3.org/2000/svg" xmlns:xlink="http://www.w3.org/1999/xlink" width="31.90193" height="35.07384" viewBox="0,0,31.90193,35.07384"><g transform="translate(-221.08186,-158.55372)"><g data-paper-data="{&quot;isPaintingLayer&quot;:true}" fill-rule="nonzero" stroke="none" stroke-linecap="butt" stroke-linejoin="miter" stroke-miterlimit="10" stroke-dasharray="" stroke-dashoffset="0" style="mix-blend-mode: normal"><path d="M241.69729,182.66213c-1.49385,0.85549 -3.39836,0.33799 -4.25385,-1.15586c-0.85549,-1.49385 -0.33799,-3.39836 1.15586,-4.25385c1.49385,-0.85549 3.39836,-0.33799 4.25385,1.15586c0.85549,1.49385 0.33799,3.39836 -1.15586,4.25385z" fill="#ffc42a" stroke-width="0"/><path d="M235.96379,179.75486l-8.31444,-1.02103c0,0 -0.69957,-1.13117 -0.62801,-2.54903c0.06136,-1.21577 0.86633,-2.69977 1.16649,-3.21227c0.30644,-0.52323 1.2794,-1.92118 2.37431,-2.52868c1.24581,-0.69122 2.60909,-0.5618 2.60909,-0.5618l4.75671,6.63445c0,0 -0.9766,0.92406 -1.33463,1.51435c-0.27387,0.45154 -0.62952,1.724 -0.62952,1.724z" fill="#ffc42a" stroke-width="0"/><path d="M242.21918,176.60058l5.02332,-6.70363c0,0 1.32929,-0.04387 2.5235,0.72381c1.02399,0.65826 1.91058,2.09499 2.20573,2.61038c0.30133,0.52618 1.0297,2.0658 1.01174,3.31782c-0.02043,1.42458 -0.81113,2.54264 -0.81113,2.54264l-8.12176,0.82421c0,0 -0.3155,-1.30694 -0.64933,-1.91124c-0.25537,-0.46226 -1.18207,-1.40398 -1.18207,-1.40398z" fill="#ffc42a" stroke-width="0"/><path d="M239.68926,183.81802c0.69031,-0.01006 1.98153,-0.38472 1.98153,-0.38472l3.31489,7.46015c0,0 -0.57829,1.24131 -1.80494,1.966c-1.07807,0.63691 -2.77618,0.7686 -3.38254,0.76811c-0.59392,-0.00048 -2.28123,-0.05721 -3.36087,-0.61956c-1.25911,-0.65582 -1.88069,-1.83165 -1.88069,-1.83165l3.32711,-7.68784c0,0 1.27747,0.33722 1.80551,0.32952z" data-paper-data="{&quot;index&quot;:null}" fill="#ffc42a" stroke-width="0"/><text transform="translate(221.23354,171.59777) scale(0.30335,0.30335)" font-size="40" xml:space="preserve" fill="#b10000" fill-rule="nonzero" stroke="none" stroke-width="1" stroke-linecap="butt" stroke-linejoin="miter" stroke-miterlimit="10" stroke-dasharray="" stroke-dashoffset="0" font-family="Sans Serif" font-weight="normal" text-anchor="start" style="mix-blend-mode: normal"><tspan x="0" dy="0">1</tspan></text></g></g></svg>