<svg version="1.1" xmlns="http://www.w3.org/2000/svg" xmlns:xlink="http://www.w3.org/1999/xlink" width="83.53963" height="80.47381" viewBox="0,0,83.53963,80.47381"><g transform="translate(-197.87501,-137.84021)"><g data-paper-data="{&quot;isPaintingLayer&quot;:true}" fill-rule="nonzero" stroke="none" stroke-linecap="butt" stroke-linejoin="miter" stroke-miterlimit="10" stroke-dasharray="" stroke-dashoffset="0" style="mix-blend-mode: normal"><path d="M249.36698,163.14304c0,13.97436 -11.36493,25.30282 -25.38428,25.30282c-14.01936,0 -25.38428,-11.32846 -25.38428,-25.30282c0,-13.97436 11.36493,-25.30282 25.38428,-25.30282c14.01936,0 25.38428,11.32846 25.38428,25.30282z" fill-opacity="0.72579" fill="#3bff46" stroke-width="NaN"/><path d="M281.41464,191.95764c0,13.97435 -11.36493,25.30282 -25.38428,25.30282c-14.01936,0 -25.38428,-11.32846 -25.38428,-25.30282c0,-13.97435 11.36493,-25.30282 25.38428,-25.30282c14.01935,0 25.38428,11.32846 25.38428,25.30282z" fill-opacity="0.72579" fill="#3bff46" stroke-width="NaN"/><path d="M281.21289,164.35214c0,13.97435 -11.36493,25.30282 -25.38428,25.30282c-14.01936,0 -25.38428,-11.32846 -25.38428,-25.30282c0,-13.97435 11.36492,-25.30282 25.38428,-25.30282c14.01935,0 25.38428,11.32846 25.38428,25.30282z" fill-opacity="0.72579" fill="#3bff46" stroke-width="NaN"/><path d="M248.64358,193.01121c0,13.97435 -11.36493,25.30282 -25.38429,25.30282c-14.01936,0 -25.38428,-11.32846 -25.38428,-25.30282c0,-13.97435 11.36492,-25.30282 25.38428,-25.30282c14.01936,0 25.38429,11.32846 25.38429,25.30282z" fill-opacity="0.72579" fill="#3bff46" stroke-width="NaN"/><path d="M220.05191,162.03119c-0.94418,0.54071 -2.14792,0.21362 -2.68862,-0.73056c-0.54071,-0.94418 -0.21362,-2.14791 0.73056,-2.68862c0.94418,-0.54071 2.14791,-0.21363 2.68861,0.73055c0.54071,0.94418 0.21363,2.14792 -0.73055,2.68862z" fill="#249e2b" stroke-width="0"/><path d="M216.42808,160.19367l-5.25509,-0.64534c0,0 -0.44216,-0.71495 -0.39693,-1.6111c0.03878,-0.76842 0.54756,-1.70638 0.73728,-2.0303c0.19368,-0.3307 0.80864,-1.21427 1.50066,-1.59824c0.78741,-0.43688 1.64906,-0.35508 1.64906,-0.35508l3.00645,4.19326c0,0 -0.61726,0.58405 -0.84355,0.95713c-0.1731,0.28539 -0.39789,1.08964 -0.39789,1.08964z" fill="#249e2b" stroke-width="0"/><path d="M220.38176,158.20003l3.17496,-4.23699c0,0 0.84016,-0.02773 1.59496,0.45748c0.64721,0.41605 1.20757,1.32413 1.39412,1.64988c0.19045,0.33257 0.65081,1.30568 0.63946,2.09701c-0.01291,0.9004 -0.51267,1.60706 -0.51267,1.60706l-5.13331,0.52094c0,0 -0.19941,-0.82605 -0.4104,-1.20799c-0.16141,-0.29217 -0.74712,-0.88737 -0.74712,-0.88737z" fill="#249e2b" stroke-width="0"/><path d="M218.78274,162.76176c0.43631,-0.00636 1.25242,-0.24316 1.25242,-0.24316l2.09516,4.71515c0,0 -0.36551,0.78456 -1.1408,1.24259c-0.68139,0.40256 -1.75467,0.48579 -2.13791,0.48548c-0.37538,-0.0003 -1.44183,-0.03616 -2.12421,-0.39159c-0.79582,-0.4145 -1.18868,-1.15768 -1.18868,-1.15768l2.10288,-4.85906c0,0 0.80741,0.21314 1.14116,0.20828z" data-paper-data="{&quot;index&quot;:null}" fill="#249e2b" stroke-width="0"/><path d="M258.17569,154.60977c-0.94418,0.54071 -2.14792,0.21362 -2.68862,-0.73056c-0.54071,-0.94418 -0.21362,-2.14791 0.73056,-2.68862c0.94418,-0.54071 2.14791,-0.21362 2.68862,0.73056c0.54071,0.94418 0.21363,2.14791 -0.73055,2.68862z" fill="#249e2b" stroke-width="0"/><path d="M254.55187,152.77225l-5.25509,-0.64533c0,0 -0.44216,-0.71495 -0.39693,-1.6111c0.03878,-0.76842 0.54756,-1.70638 0.73728,-2.0303c0.19368,-0.3307 0.80864,-1.21427 1.50066,-1.59823c0.78741,-0.43688 1.64906,-0.35508 1.64906,-0.35508l3.00645,4.19326c0,0 -0.61726,0.58405 -0.84355,0.95713c-0.1731,0.28539 -0.39789,1.08965 -0.39789,1.08965z" fill="#249e2b" stroke-width="0"/><path d="M258.50555,150.77861l3.17496,-4.23699c0,0 0.84017,-0.02773 1.59496,0.45748c0.6472,0.41605 1.20757,1.32412 1.39412,1.64987c0.19045,0.33257 0.65082,1.30568 0.63947,2.09701c-0.01292,0.9004 -0.51267,1.60706 -0.51267,1.60706l-5.13331,0.52094c0,0 -0.19941,-0.82604 -0.41041,-1.20799c-0.16141,-0.29217 -0.74712,-0.88738 -0.74712,-0.88738z" fill="#249e2b" stroke-width="0"/><path d="M256.90653,155.34034c0.43631,-0.00636 1.25241,-0.24316 1.25241,-0.24316l2.09516,4.71514c0,0 -0.3655,0.78456 -1.1408,1.2426c-0.68138,0.40256 -1.75467,0.48579 -2.13792,0.48548c-0.37538,-0.0003 -1.44183,-0.03616 -2.12421,-0.39159c-0.79582,-0.4145 -1.18868,-1.15768 -1.18868,-1.15768l2.10288,-4.85906c0,0 0.80741,0.21314 1.14116,0.20828z" data-paper-data="{&quot;index&quot;:null}" fill="#249e2b" stroke-width="0"/><path d="M240.88084,176.49016c-0.94418,0.54071 -2.14791,0.21362 -2.68862,-0.73056c-0.54071,-0.94418 -0.21362,-2.14791 0.73056,-2.68862c0.94418,-0.54071 2.14791,-0.21363 2.68861,0.73055c0.54071,0.94418 0.21363,2.14792 -0.73055,2.68862z" fill="#249e2b" stroke-width="0"/><path d="M237.25701,174.65264l-5.25509,-0.64534c0,0 -0.44216,-0.71494 -0.39693,-1.61109c0.03878,-0.76842 0.54756,-1.70638 0.73728,-2.0303c0.19368,-0.3307 0.80864,-1.21427 1.50066,-1.59823c0.78741,-0.43688 1.64906,-0.35508 1.64906,-0.35508l3.00645,4.19326c0,0 -0.61725,0.58405 -0.84354,0.95713c-0.1731,0.28539 -0.39789,1.08964 -0.39789,1.08964z" fill="#249e2b" stroke-width="0"/><path d="M241.21069,172.659l3.17496,-4.23699c0,0 0.84017,-0.02773 1.59496,0.45748c0.64721,0.41605 1.20757,1.32413 1.39412,1.64988c0.19045,0.33257 0.65081,1.30568 0.63947,2.09701c-0.01291,0.9004 -0.51267,1.60706 -0.51267,1.60706l-5.13331,0.52094c0,0 -0.19941,-0.82604 -0.4104,-1.20799c-0.16141,-0.29217 -0.74712,-0.88738 -0.74712,-0.88738z" fill="#249e2b" stroke-width="0"/><path d="M239.61167,177.22073c0.43631,-0.00636 1.25241,-0.24316 1.25241,-0.24316l2.09516,4.71515c0,0 -0.3655,0.78456 -1.1408,1.24259c-0.68139,0.40256 -1.75467,0.48579 -2.13792,0.48548c-0.37538,-0.0003 -1.44183,-0.03616 -2.12421,-0.39159c-0.79582,-0.4145 -1.18868,-1.15768 -1.18868,-1.15768l2.10288,-4.85906c0,0 0.80742,0.21314 1.14116,0.20828z" data-paper-data="{&quot;index&quot;:null}" fill="#249e2b" stroke-width="0"/><path d="M214.03104,198.68905c-0.94418,0.54071 -2.14791,0.21362 -2.68862,-0.73056c-0.54071,-0.94418 -0.21362,-2.14791 0.73056,-2.68862c0.94418,-0.54071 2.14791,-0.21363 2.68861,0.73055c0.54071,0.94418 0.21363,2.14792 -0.73055,2.68862z" fill="#249e2b" stroke-width="0"/><path d="M210.40722,196.85153l-5.25509,-0.64534c0,0 -0.44216,-0.71495 -0.39693,-1.6111c0.03878,-0.76842 0.54756,-1.70638 0.73728,-2.0303c0.19368,-0.3307 0.80864,-1.21427 1.50066,-1.59824c0.78741,-0.43688 1.64906,-0.35508 1.64906,-0.35508l3.00645,4.19326c0,0 -0.61725,0.58405 -0.84354,0.95713c-0.1731,0.28539 -0.39789,1.08964 -0.39789,1.08964z" fill="#249e2b" stroke-width="0"/><path d="M214.3609,194.85789l3.17496,-4.23699c0,0 0.84017,-0.02773 1.59496,0.45748c0.64721,0.41605 1.20757,1.32413 1.39412,1.64988c0.19045,0.33257 0.65081,1.30568 0.63947,2.09701c-0.01291,0.9004 -0.51267,1.60706 -0.51267,1.60706l-5.13331,0.52094c0,0 -0.19941,-0.82605 -0.4104,-1.20799c-0.16141,-0.29217 -0.74712,-0.88737 -0.74712,-0.88737z" fill="#249e2b" stroke-width="0"/><path d="M212.76188,199.41962c0.43631,-0.00636 1.25241,-0.24316 1.25241,-0.24316l2.09516,4.71515c0,0 -0.3655,0.78456 -1.1408,1.24259c-0.68139,0.40256 -1.75467,0.48579 -2.13792,0.48548c-0.37538,-0.0003 -1.44183,-0.03616 -2.12421,-0.39159c-0.79582,-0.4145 -1.18868,-1.15768 -1.18868,-1.15768l2.10288,-4.85906c0,0 0.80742,0.21314 1.14116,0.20828z" data-paper-data="{&quot;index&quot;:null}" fill="#249e2b" stroke-width="0"/><path d="M262.66526,200.82257c-0.94418,0.54071 -2.14792,0.21362 -2.68862,-0.73056c-0.54071,-0.94418 -0.21362,-2.14792 0.73056,-2.68862c0.94418,-0.54071 2.14791,-0.21362 2.68861,0.73056c0.54071,0.94418 0.21363,2.14792 -0.73055,2.68862z" fill="#249e2b" stroke-width="0"/><path d="M259.04143,198.98505l-5.25509,-0.64534c0,0 -0.44216,-0.71495 -0.39693,-1.6111c0.03878,-0.76842 0.54756,-1.70638 0.73728,-2.0303c0.19368,-0.3307 0.80864,-1.21427 1.50066,-1.59824c0.78741,-0.43688 1.64906,-0.35508 1.64906,-0.35508l3.00645,4.19326c0,0 -0.61726,0.58405 -0.84355,0.95713c-0.1731,0.28539 -0.39789,1.08964 -0.39789,1.08964z" fill="#249e2b" stroke-width="0"/><path d="M262.99511,196.99141l3.17496,-4.23699c0,0 0.84017,-0.02773 1.59496,0.45748c0.6472,0.41605 1.20757,1.32413 1.39412,1.64988c0.19045,0.33257 0.65081,1.30568 0.63946,2.09701c-0.01292,0.9004 -0.51267,1.60706 -0.51267,1.60706l-5.13331,0.52093c0,0 -0.19941,-0.82604 -0.4104,-1.20799c-0.16141,-0.29217 -0.74712,-0.88737 -0.74712,-0.88737z" fill="#249e2b" stroke-width="0"/><path d="M261.39609,201.55314c0.43631,-0.00636 1.25241,-0.24316 1.25241,-0.24316l2.09515,4.71515c0,0 -0.3655,0.78456 -1.1408,1.24259c-0.68138,0.40256 -1.75467,0.48579 -2.13792,0.48548c-0.37538,-0.0003 -1.44183,-0.03616 -2.12421,-0.39159c-0.79582,-0.4145 -1.18868,-1.15768 -1.18868,-1.15768l2.10288,-4.85906c0,0 0.80741,0.21314 1.14116,0.20827z" data-paper-data="{&quot;index&quot;:null}" fill="#249e2b" stroke-width="0"/></g></g></svg>