<svg version="1.1" xmlns="http://www.w3.org/2000/svg" xmlns:xlink="http://www.w3.org/1999/xlink" width="104.5292" height="104.5292" viewBox="0,0,104.5292,104.5292"><g transform="translate(-187.7354,-127.7354)"><g data-paper-data="{&quot;isPaintingLayer&quot;:true}" fill-rule="nonzero" stroke-linecap="butt" stroke-linejoin="miter" stroke-miterlimit="10" stroke-dasharray="" stroke-dashoffset="0" style="mix-blend-mode: normal"><path d="M191.2354,180c0,-26.93194 21.83266,-48.7646 48.7646,-48.7646c26.93194,0 48.7646,21.83266 48.7646,48.7646c0,26.93194 -21.83266,48.7646 -48.7646,48.7646c-26.93194,0 -48.7646,-21.83266 -48.7646,-48.7646z" fill="none" stroke="#cbcbcb" stroke-width="7"/><path d="M286.28748,181.34502c0,5.578 -5.52937,9.13428 -5.50616,13.64213c0.02309,4.4831 5.60685,9.92461 2.68572,13.00764c-2.31519,2.44349 -11.66193,2.4024 -14.57866,4.80303c-3.64068,2.99647 -4.58346,13.34756 -10.04826,14.20549c-2.33168,0.36604 -14.16449,-3.37678 -16.60404,-3.37678c-4.47161,0 -8.32906,-5.68916 -13.16605,-5.66496c-5.05046,0.02527 -11.06237,5.71163 -14.80366,3.12565c-4.63144,-3.20126 -5.70303,-13.21258 -9.44422,-16.82157c-3.48101,-3.358 -9.62911,-1.48816 -10.98195,-6.23806c-1.01394,-3.56004 4.34447,-12.81382 4.34447,-16.68255c0,-5.4663 4.24142,-7.80608 3.75842,-13.534c-0.3741,-4.43631 -5.94291,-12.47888 -3.59046,-15.63337c1.99842,-2.67977 13.59758,-0.59953 15.76299,-3.29497c2.6775,-3.33288 0.4735,-13.03905 4.51937,-14.6112c5.1019,-1.98252 23.26493,-1.10766 29.10751,-1.10766c6.97205,0 4.02398,12.02917 10.30053,13.06199c6.29546,1.03592 16.30306,-3.01754 19.26375,1.79813c2.22967,3.62665 -2.596,14.4498 -0.95064,18.9657c1.59255,4.37097 9.93137,9.46281 9.93137,14.35542z" fill="#ffe400" stroke="none" stroke-width="0"/><path d="M271.75003,180.68642c0,2.84669 -3.79278,4.66163 -3.77685,6.96219c0.01584,2.28792 3.84591,5.06497 1.84222,6.63838c-1.58806,1.24702 -7.99929,1.22607 -9.99994,2.45121c-2.49726,1.52922 -3.14393,6.81185 -6.89242,7.2497c-1.59937,0.18681 -9.71587,-1.72333 -11.38923,-1.72333c-3.06722,0 -5.71317,-2.90343 -9.031,-2.89107c-3.46427,0.0129 -7.58803,2.9149 -10.15428,1.59516c-3.17685,-1.63376 -3.91189,-6.74296 -6.47809,-8.58483c-2.38773,-1.71375 -6.60491,-0.75948 -7.53286,-3.18356c-0.6955,-1.81685 2.98,-6.53947 2.98,-8.51385c0,-2.78969 2.90932,-3.9838 2.57803,-6.90702c-0.2566,-2.26406 -4.07642,-6.36853 -2.46282,-7.97841c1.37079,-1.36761 9.32701,-0.30596 10.81233,-1.68158c1.83659,-1.70092 0.32479,-6.65442 3.09998,-7.45675c3.49954,-1.01178 15.95815,-0.56529 19.96575,-0.56529c4.78234,0 2.76017,6.13902 7.06546,6.66612c4.31824,0.52867 11.18278,-1.53999 13.2136,0.91767c1.5294,1.85084 -1.78068,7.37438 -0.65208,9.67905c1.09238,2.23071 6.81224,4.8293 6.81224,7.32621z" fill="#ffe400" stroke="none" stroke-width="0"/></g></g></svg>