<svg version="1.1" xmlns="http://www.w3.org/2000/svg" xmlns:xlink="http://www.w3.org/1999/xlink" width="22.26907" height="6.55967" viewBox="0,0,22.26907,6.55967"><g transform="translate(-228.86547,-176.72016)"><g data-paper-data="{&quot;isPaintingLayer&quot;:true}" fill="#5a5c00" fill-rule="nonzero" stroke="none" stroke-width="0" stroke-linecap="butt" stroke-linejoin="miter" stroke-miterlimit="10" stroke-dasharray="" stroke-dashoffset="0" style="mix-blend-mode: normal"><path d="M229.03651,182.45488l-0.17104,-4.57914c0,0 3.8224,-1.03599 7.69775,-1.15007c2.71869,-0.08003 5.46345,0.73802 6.93283,0.77594c0.76273,0.01968 1.13733,0.73841 1.94613,0.89316c1.32773,0.25406 1.45587,-1.13996 1.45587,-1.13996c0,0 4.23649,2.17272 4.23649,2.7133c0,0.50765 -4.23649,2.93762 -4.23649,2.93762c0,0 -0.38975,-1.95414 -1.13213,-1.75491c-0.9003,0.24161 -0.75106,1.27301 -1.68013,1.31736c-1.53936,0.07347 -4.22688,0.82834 -7.27373,0.81137c-3.74398,-0.02085 -7.77554,-0.82468 -7.77554,-0.82468z"/></g></g></svg>