<svg version="1.1" xmlns="http://www.w3.org/2000/svg" xmlns:xlink="http://www.w3.org/1999/xlink" width="39.35318" height="22.6499" viewBox="0,0,39.35318,22.6499"><g transform="translate(-220.38869,-170.59204)"><g data-paper-data="{&quot;isPaintingLayer&quot;:true}" fill="#606060" fill-rule="nonzero" stroke="none" stroke-linecap="butt" stroke-linejoin="miter" stroke-miterlimit="10" stroke-dasharray="" stroke-dashoffset="0" style="mix-blend-mode: normal"><path d="M223.8236,188.37274l4.70225,-12.64389l4.59536,1.66498l-4.26236,11.76411z" stroke-width="0"/><path d="M225.30944,177.90346v-5.66972l14.44057,-1.6l14.98329,1.6v5.66972l-14.98329,1.7z" stroke-width="0"/><path d="M235.60892,180.67088c-0.01152,0.01152 -0.02303,0.02218 -0.03454,0.03203c0.86142,-0.12277 1.4855,-0.5226 1.48305,-1.58945v-0.21995c0,0 0,-0.43989 0.43989,-0.43989c0.43989,0 0.43989,0.43989 0.43989,0.43989v0.21995c-0.00711,3.49648 -3.80866,2.07223 -6.16959,2.41499c0,0 -0.43547,0.06221 -0.49768,-0.37326c-0.06221,-0.43547 0.37326,-0.49768 0.37326,-0.49768c0.93052,-0.13102 2.31,0.1301 3.44361,0.08711c-0.06229,-0.03603 -0.10001,-0.07375 -0.10001,-0.07375l-0.32621,-0.39189c-0.2057,-0.63968 -0.16921,-1.23225 -0.16921,-1.89867c0,0 0,-0.43989 0.43989,-0.43989c0.43989,0 0.43989,0.43989 0.43989,0.43989c0,0.55898 -0.06101,1.09087 0.12405,1.62046l0.11368,0.048c0,0 0.31105,0.31105 0,0.6221z" stroke-width="0.5"/><path d="M253.35197,173.01145v-2.4194h1.09973v2.4194z" stroke-width="0"/><path d="M227.17842,173.08477v-1.90619h0.58652v1.90619z" stroke-width="0"/><path d="M253.38791,175.6508v-2.19945h6.35397v2.19945z" stroke-width="0"/><path d="M242.15688,193.24195l-5.907,-16.87077l3.89325,-1.36315l5.907,16.87077z" stroke-width="0"/><path d="M220.3887,179.91274l1.77639,-7.69769l2.04622,0.4722l-1.77639,7.69769z" stroke-width="0"/><path d="M223.05001,174.75v-1.3h5.3v1.3z" stroke-width="0"/></g></g></svg>