<svg version="1.1" xmlns="http://www.w3.org/2000/svg" xmlns:xlink="http://www.w3.org/1999/xlink" width="52.66337" height="10.462" viewBox="0,0,52.66337,10.462"><g transform="translate(-213.66832,-174.769)"><g data-paper-data="{&quot;isPaintingLayer&quot;:true}" fill-rule="nonzero" stroke="none" stroke-linecap="butt" stroke-linejoin="miter" stroke-miterlimit="10" stroke-dasharray="" stroke-dashoffset="0" style="mix-blend-mode: normal"><path d="M234.97016,178.67163c0,0 -0.13847,-0.46056 0.26759,-0.61762c0.40607,-0.15705 0.54454,0.3035 0.54454,0.3035c0.22694,0.78181 -0.21959,1.87246 0.20863,2.43101l0.28311,0.26786c0.25864,-0.19099 0.49152,-0.50129 0.69463,-0.97651l0.09461,-0.21835c0,0 0.18922,-0.43672 0.57427,-0.2221c0.38505,0.21461 0.19582,0.65133 0.19582,0.65133l-0.09461,0.21835c-1.06652,2.43424 -2.70863,1.78564 -4.61452,1.21279c0,0 -0.41469,-0.12481 -0.30465,-0.59512c0.11004,-0.47034 0.52471,-0.34554 0.52471,-0.34554c0.70163,0.2114 1.35653,0.48622 1.93848,0.52994c-0.50649,-0.94735 0.00451,-1.63223 -0.31264,-2.63954z" fill="#898989" stroke-width="0.5"/><path d="M235.54883,179.75384v-2.43017h29.9248v2.43017z" fill="#898989" stroke-width="0"/><path d="M213.66832,185.231v-8.75889h22.73856l-0.32177,4.13615z" fill="#8e5219" stroke-width="0"/><path d="M229.75692,177.93193v-3.16293h36.57477v3.16293z" fill="#5a5a5a" stroke-width="0"/><path d="M243.37861,181.09486v-3.89284h18.66279v3.89284z" fill="#8e5219" stroke-width="0"/></g></g></svg>