<svg version="1.1" xmlns="http://www.w3.org/2000/svg" xmlns:xlink="http://www.w3.org/1999/xlink" width="32.96577" height="7.18225" viewBox="0,0,32.96577,7.18225"><g transform="translate(-223.51712,-176.40887)"><g data-paper-data="{&quot;isPaintingLayer&quot;:true}" fill-rule="nonzero" stroke="none" stroke-linecap="butt" stroke-linejoin="miter" stroke-miterlimit="10" stroke-dasharray="" stroke-dashoffset="0" style="mix-blend-mode: normal"><path d="M236.1338,180.05244c-0.00042,-0.26427 -0.00084,-0.52853 -0.00125,-0.7928c0,0 0,-0.5 0.36906,-0.5c0.36906,0 0.36906,0.5 0.36906,0.5c-0.00042,0.23677 -0.00084,0.47355 -0.00125,0.71032l0.05788,0.46008c0,0 0.01557,0.12663 -0.01642,0.26225c0.24218,0.01903 0.35676,-0.24626 0.45945,-1.09731l-0.00502,-0.25183c0,0 0,-0.5 0.36906,-0.5c0.36906,0 0.36906,0.5 0.36906,0.5l-0.00502,0.41623c-0.33222,2.64105 -1.26263,1.80632 -2.93246,1.14953c0,0 -0.35442,-0.13941 -0.25153,-0.61958c0.1029,-0.48017 0.45733,-0.34077 0.45733,-0.34077c0.31595,0.12427 0.57765,0.26211 0.79599,0.38508z" fill="#595959" stroke-width="0.5"/><path d="M236.83857,179.16459v-1.75364h1.35604v1.75364z" fill="#595959" stroke-width="0"/><path d="M232.46227,177.66148v-1.2526h11.77288v1.2526z" fill="#303030" stroke-width="0"/><path d="M224.44169,183.59113c0,0 -0.92457,-1.86379 -0.92457,-2.75571c0,-0.79482 0.92457,-2.33818 0.92457,-2.33818c0,0 7.31519,0 9.22454,0c0.85975,0 1.87032,0.5835 1.87032,0.85779c0,0.25283 0,0.72883 0,0.72883z" data-paper-data="{&quot;index&quot;:null}" fill="#583100" stroke-width="0"/><path d="M232.46226,179.58212c0,0 0,-0.37747 0,-0.58455c0,-0.2348 0.57402,-0.75156 1.23611,-0.75156c2.70614,0 20.6503,0 20.6503,0v1.3361c0,0 -14.88311,0.60001 -18.57869,0.60001c-1.58112,0 -3.30772,-0.6 -3.30772,-0.6z" fill="#583100" stroke-width="0"/><path d="M253.24956,179.90001v-2.07059l3.23333,-0.86275v4.4z" fill="#593912" stroke-width="0"/></g></g></svg>