<svg version="1.1" xmlns="http://www.w3.org/2000/svg" xmlns:xlink="http://www.w3.org/1999/xlink" width="39.16666" height="39.16666" viewBox="0,0,39.16666,39.16666"><defs><linearGradient x1="223.20834" y1="174.5977" x2="256.70833" y2="174.5977" gradientUnits="userSpaceOnUse" id="color-1"><stop offset="0" stop-color="#7158a3"/><stop offset="1" stop-color="#8060c2"/></linearGradient><linearGradient x1="223.31945" y1="182.5977" x2="256.81944" y2="182.5977" gradientUnits="userSpaceOnUse" id="color-2"><stop offset="0" stop-color="#7158a3"/><stop offset="1" stop-color="#7f60c1"/></linearGradient></defs><g transform="translate(-220.41667,-160.41667)"><g data-paper-data="{&quot;isPaintingLayer&quot;:true}" fill-rule="nonzero" stroke-linejoin="miter" stroke-miterlimit="10" stroke-dasharray="" stroke-dashoffset="0" style="mix-blend-mode: normal"><path d="M222.16667,197.83333v-35.66666h35.66666v35.66666z" fill="#5f3ea2" stroke="none" stroke-width="0" stroke-linecap="butt"/><path d="M240.4,195.83611v-32h16.8v32z" fill="#724ac2" stroke="none" stroke-width="0" stroke-linecap="butt"/><path d="M223.20834,168.77778l33.5,5.96186v5.67797l-33.5,-5.96186z" fill="url(#color-1)" stroke="none" stroke-width="0" stroke-linecap="butt"/><path d="M223.31945,177.55556l33.5,5.97812v4.10615l-33.5,-5.97813z" fill="url(#color-2)" stroke="none" stroke-width="0" stroke-linecap="butt"/><path d="M222.16667,197.83333v-35.66666h35.66666v35.66666z" fill="none" stroke="#381c72" stroke-width="3.5" stroke-linecap="butt"/><path d="M230.6,180c0,-5.19148 4.20852,-9.4 9.4,-9.4c5.19148,0 9.4,4.20852 9.4,9.4c0,5.19148 -4.20852,9.4 -9.4,9.4c-5.19148,0 -9.4,-4.20852 -9.4,-9.4z" fill="none" stroke="#ffffff" stroke-width="2.5" stroke-linecap="butt"/><path d="M226.8,180.03611h8.8" fill="none" stroke="#ffffff" stroke-width="2.5" stroke-linecap="round"/><path d="M245,180.03612h8.8" fill="none" stroke="#ffffff" stroke-width="2.5" stroke-linecap="round"/><path d="M240,193.2v-8.8" fill="none" stroke="#ffffff" stroke-width="2.5" stroke-linecap="round"/><path d="M240,175.6v-8.8" fill="none" stroke="#ffffff" stroke-width="2.5" stroke-linecap="round"/></g></g></svg>